<svg xmlns="http://www.w3.org/2000/svg" width="1360" height="360" viewBox="0 0 1360 360" role="img" aria-labelledby="title desc">
  <title id="title">Codex for Humans install flow</title>
  <desc id="desc">Four-step visual guide: download the repo, copy skills, open Codex, use the right prompt.</desc>
  <rect width="1360" height="360" fill="#f7f7f2"/>
  <style>
    .card { fill: #ffffff; stroke: #222222; stroke-width: 2; }
    .num { font: 700 34px Arial, sans-serif; fill: #ffffff; }
    .title { font: 700 25px Arial, sans-serif; fill: #1f2933; }
    .body { font: 18px Arial, sans-serif; fill: #3b4652; }
    .arrow { stroke: #226f54; stroke-width: 5; fill: none; marker-end: url(#arrowhead); }
    .badge { fill: #226f54; }
    .accent { fill: #f4a261; }
    .small { font: 15px Arial, sans-serif; fill: #5f6c76; }
  </style>
  <defs>
    <marker id="arrowhead" markerWidth="12" markerHeight="12" refX="10" refY="6" orient="auto">
      <path d="M 0 0 L 12 6 L 0 12 z" fill="#226f54"/>
    </marker>
  </defs>

  <rect class="card" x="40" y="58" width="235" height="230" rx="12"/>
  <circle class="badge" cx="78" cy="95" r="26"/>
  <text class="num" x="68" y="107">1</text>
  <text class="title" x="112" y="103">Get Repo</text>
  <text class="body" x="68" y="155">Download or clone</text>
  <text class="body" x="68" y="184">codex-for-humans.</text>
  <rect class="accent" x="68" y="218" width="180" height="18" rx="5"/>
  <text class="small" x="68" y="262">Start with a private copy.</text>

  <path class="arrow" d="M 292 173 L 372 173"/>

  <rect class="card" x="390" y="58" width="235" height="230" rx="12"/>
  <circle class="badge" cx="428" cy="95" r="26"/>
  <text class="num" x="418" y="107">2</text>
  <text class="title" x="462" y="103">Copy Skills</text>
  <text class="body" x="418" y="155">Copy both folders</text>
  <text class="body" x="418" y="184">into .codex/skills.</text>
  <rect class="accent" x="418" y="218" width="180" height="18" rx="5"/>
  <text class="small" x="418" y="262">No secrets, no logs.</text>

  <path class="arrow" d="M 642 173 L 722 173"/>

  <rect class="card" x="740" y="58" width="235" height="230" rx="12"/>
  <circle class="badge" cx="778" cy="95" r="26"/>
  <text class="num" x="768" y="107">3</text>
  <text class="title" x="812" y="103">Open Codex</text>
  <text class="body" x="768" y="155">Open your real</text>
  <text class="body" x="768" y="184">project folder.</text>
  <rect class="accent" x="768" y="218" width="180" height="18" rx="5"/>
  <text class="small" x="768" y="262">Codex checks local files.</text>

  <path class="arrow" d="M 992 173 L 1062 173"/>

  <rect class="card" x="1080" y="58" width="260" height="230" rx="12"/>
  <circle class="badge" cx="1108" cy="95" r="26"/>
  <text class="num" x="1098" y="107">4</text>
  <text class="title" x="1218" y="103" text-anchor="middle">Use Prompt</text>
  <text class="body" x="1100" y="155">0-1: build</text>
  <text class="body" x="1100" y="184">70-100: audit</text>
  <rect class="accent" x="1100" y="218" width="120" height="18" rx="5"/>
  <text class="small" x="1100" y="262">Web GPT reviews only.</text>
</svg>
